<mxfile host="app.diagrams.net" agent="Mozilla/5.0 (Windows NT 10.0; Win64; x64) AppleWebKit/537.36 (KHTML, like Gecko) Chrome/137.0.0.0 Safari/537.36" version="27.0.4">
  <diagram name="Page-1" id="zroDe92tfE72FPUY7jOc">
    <mxGraphModel dx="1042" dy="535" grid="1" gridSize="10" guides="1" tooltips="1" connect="1" arrows="1" fold="1" page="1" pageScale="1" pageWidth="827" pageHeight="1169" math="0" shadow="0">
      <root>
        <mxCell id="0" />
        <mxCell id="1" parent="0" />
        <mxCell id="z53Dpos0YwPdWJRnCJ37-1" value="" style="endArrow=none;dashed=1;html=1;rounded=0;" parent="1" edge="1">
          <mxGeometry width="50" height="50" relative="1" as="geometry">
            <mxPoint y="320" as="sourcePoint" />
            <mxPoint x="520" y="320" as="targetPoint" />
          </mxGeometry>
        </mxCell>
        <mxCell id="z53Dpos0YwPdWJRnCJ37-2" value="User Mode" style="text;html=1;align=center;verticalAlign=middle;whiteSpace=wrap;rounded=0;" parent="1" vertex="1">
          <mxGeometry y="280" width="90" height="30" as="geometry" />
        </mxCell>
        <mxCell id="z53Dpos0YwPdWJRnCJ37-3" value="Kernel Mode" style="text;html=1;align=center;verticalAlign=middle;whiteSpace=wrap;rounded=0;" parent="1" vertex="1">
          <mxGeometry y="330" width="90" height="30" as="geometry" />
        </mxCell>
        <mxCell id="z53Dpos0YwPdWJRnCJ37-4" value="" style="endArrow=none;dashed=1;html=1;rounded=0;" parent="1" edge="1">
          <mxGeometry width="50" height="50" relative="1" as="geometry">
            <mxPoint y="859" as="sourcePoint" />
            <mxPoint x="520" y="859" as="targetPoint" />
          </mxGeometry>
        </mxCell>
        <mxCell id="z53Dpos0YwPdWJRnCJ37-5" value="WCN Subsystem" style="text;html=1;align=center;verticalAlign=middle;whiteSpace=wrap;rounded=0;" parent="1" vertex="1">
          <mxGeometry y="869" width="90" height="30" as="geometry" />
        </mxCell>
        <mxCell id="z53Dpos0YwPdWJRnCJ37-8" value="BthServ" style="rounded=1;whiteSpace=wrap;html=1;" parent="1" vertex="1">
          <mxGeometry x="424" y="40" width="80" height="60" as="geometry" />
        </mxCell>
        <mxCell id="z53Dpos0YwPdWJRnCJ37-45" style="edgeStyle=orthogonalEdgeStyle;rounded=0;orthogonalLoop=1;jettySize=auto;html=1;exitX=1;exitY=0.5;exitDx=0;exitDy=0;" parent="1" source="z53Dpos0YwPdWJRnCJ37-9" target="z53Dpos0YwPdWJRnCJ37-10" edge="1">
          <mxGeometry relative="1" as="geometry" />
        </mxCell>
        <mxCell id="z53Dpos0YwPdWJRnCJ37-9" value="BtconnectionManagerClient&lt;div&gt;dll&lt;/div&gt;" style="rounded=1;whiteSpace=wrap;html=1;" parent="1" vertex="1">
          <mxGeometry x="30" y="130" width="180" height="60" as="geometry" />
        </mxCell>
        <mxCell id="z53Dpos0YwPdWJRnCJ37-10" value="BtconnectionManagerService" style="rounded=1;whiteSpace=wrap;html=1;" parent="1" vertex="1">
          <mxGeometry x="324" y="130" width="180" height="60" as="geometry" />
        </mxCell>
        <mxCell id="z53Dpos0YwPdWJRnCJ37-11" value="supportDLL=&lt;div&gt;qcbtradioctrl8930&lt;/div&gt;&lt;div&gt;dll&lt;/div&gt;" style="rounded=1;whiteSpace=wrap;html=1;" parent="1" vertex="1">
          <mxGeometry x="120" y="240" width="120" height="60" as="geometry" />
        </mxCell>
        <mxCell id="z53Dpos0YwPdWJRnCJ37-12" value="" style="endArrow=none;html=1;rounded=0;exitX=0.5;exitY=0;exitDx=0;exitDy=0;entryX=0.25;entryY=1;entryDx=0;entryDy=0;" parent="1" source="z53Dpos0YwPdWJRnCJ37-11" target="z53Dpos0YwPdWJRnCJ37-10" edge="1">
          <mxGeometry width="50" height="50" relative="1" as="geometry">
            <mxPoint x="390" y="410" as="sourcePoint" />
            <mxPoint x="410" y="240" as="targetPoint" />
            <Array as="points">
              <mxPoint x="180" y="210" />
              <mxPoint x="369" y="210" />
            </Array>
          </mxGeometry>
        </mxCell>
        <mxCell id="z53Dpos0YwPdWJRnCJ37-13" value="BluetoothEnableRadio&lt;div&gt;IsBluetoothRadioEnabled&lt;/div&gt;" style="text;html=1;align=center;verticalAlign=middle;whiteSpace=wrap;rounded=0;" parent="1" vertex="1">
          <mxGeometry x="210" y="210" width="170" height="30" as="geometry" />
        </mxCell>
        <mxCell id="z53Dpos0YwPdWJRnCJ37-14" value="Bthl2cap filter" style="rounded=1;whiteSpace=wrap;html=1;" parent="1" vertex="1">
          <mxGeometry x="190" y="380" width="120" height="60" as="geometry" />
        </mxCell>
        <mxCell id="z53Dpos0YwPdWJRnCJ37-31" style="edgeStyle=orthogonalEdgeStyle;rounded=0;orthogonalLoop=1;jettySize=auto;html=1;exitX=0.5;exitY=0;exitDx=0;exitDy=0;entryX=0.5;entryY=1;entryDx=0;entryDy=0;endArrow=none;startFill=0;" parent="1" source="z53Dpos0YwPdWJRnCJ37-15" target="z53Dpos0YwPdWJRnCJ37-14" edge="1">
          <mxGeometry relative="1" as="geometry" />
        </mxCell>
        <mxCell id="z53Dpos0YwPdWJRnCJ37-34" style="edgeStyle=orthogonalEdgeStyle;rounded=0;orthogonalLoop=1;jettySize=auto;html=1;exitX=0.5;exitY=1;exitDx=0;exitDy=0;entryX=0.5;entryY=0;entryDx=0;entryDy=0;" parent="1" source="z53Dpos0YwPdWJRnCJ37-15" target="z53Dpos0YwPdWJRnCJ37-17" edge="1">
          <mxGeometry relative="1" as="geometry" />
        </mxCell>
        <mxCell id="z53Dpos0YwPdWJRnCJ37-15" value="wp81pairingfilter" style="rounded=1;whiteSpace=wrap;html=1;" parent="1" vertex="1">
          <mxGeometry x="195" y="470" width="110" height="30" as="geometry" />
        </mxCell>
        <mxCell id="z53Dpos0YwPdWJRnCJ37-36" style="edgeStyle=orthogonalEdgeStyle;rounded=0;orthogonalLoop=1;jettySize=auto;html=1;exitX=0.5;exitY=1;exitDx=0;exitDy=0;entryX=0.5;entryY=0;entryDx=0;entryDy=0;endArrow=none;startFill=0;" parent="1" source="z53Dpos0YwPdWJRnCJ37-17" target="z53Dpos0YwPdWJRnCJ37-18" edge="1">
          <mxGeometry relative="1" as="geometry" />
        </mxCell>
        <mxCell id="z53Dpos0YwPdWJRnCJ37-17" value="BthMini&lt;div&gt;Bluetooth Radio&lt;/div&gt;" style="rounded=1;whiteSpace=wrap;html=1;" parent="1" vertex="1">
          <mxGeometry x="190" y="540" width="120" height="60" as="geometry" />
        </mxCell>
        <mxCell id="z53Dpos0YwPdWJRnCJ37-37" style="edgeStyle=orthogonalEdgeStyle;rounded=0;orthogonalLoop=1;jettySize=auto;html=1;exitX=0.5;exitY=1;exitDx=0;exitDy=0;entryX=0.5;entryY=0;entryDx=0;entryDy=0;" parent="1" source="z53Dpos0YwPdWJRnCJ37-18" target="z53Dpos0YwPdWJRnCJ37-25" edge="1">
          <mxGeometry relative="1" as="geometry" />
        </mxCell>
        <mxCell id="z53Dpos0YwPdWJRnCJ37-18" value="wp81hcifilter" style="rounded=1;whiteSpace=wrap;html=1;" parent="1" vertex="1">
          <mxGeometry x="195" y="628" width="110" height="30" as="geometry" />
        </mxCell>
        <mxCell id="z53Dpos0YwPdWJRnCJ37-24" style="edgeStyle=orthogonalEdgeStyle;rounded=0;orthogonalLoop=1;jettySize=auto;html=1;exitX=1;exitY=0.5;exitDx=0;exitDy=0;entryX=0;entryY=0.5;entryDx=0;entryDy=0;endArrow=none;startFill=0;" parent="1" source="z53Dpos0YwPdWJRnCJ37-20" target="z53Dpos0YwPdWJRnCJ37-17" edge="1">
          <mxGeometry relative="1" as="geometry" />
        </mxCell>
        <mxCell id="z53Dpos0YwPdWJRnCJ37-20" value="BthPort" style="rounded=1;whiteSpace=wrap;html=1;" parent="1" vertex="1">
          <mxGeometry x="10" y="540" width="120" height="60" as="geometry" />
        </mxCell>
        <mxCell id="RMtyQ-C09SP7Z6zddE9l-3" style="edgeStyle=orthogonalEdgeStyle;rounded=0;orthogonalLoop=1;jettySize=auto;html=1;exitX=0.5;exitY=1;exitDx=0;exitDy=0;entryX=0.5;entryY=0;entryDx=0;entryDy=0;" edge="1" parent="1" source="z53Dpos0YwPdWJRnCJ37-25" target="RMtyQ-C09SP7Z6zddE9l-1">
          <mxGeometry relative="1" as="geometry" />
        </mxCell>
        <mxCell id="RMtyQ-C09SP7Z6zddE9l-5" style="edgeStyle=orthogonalEdgeStyle;rounded=0;orthogonalLoop=1;jettySize=auto;html=1;exitX=1;exitY=0.5;exitDx=0;exitDy=0;entryX=1;entryY=0.5;entryDx=0;entryDy=0;dashed=1;" edge="1" parent="1" source="z53Dpos0YwPdWJRnCJ37-25" target="z53Dpos0YwPdWJRnCJ37-17">
          <mxGeometry relative="1" as="geometry">
            <Array as="points">
              <mxPoint x="360" y="720" />
              <mxPoint x="360" y="570" />
            </Array>
          </mxGeometry>
        </mxCell>
        <mxCell id="RMtyQ-C09SP7Z6zddE9l-7" value="Creates" style="edgeLabel;html=1;align=center;verticalAlign=middle;resizable=0;points=[];" vertex="1" connectable="0" parent="RMtyQ-C09SP7Z6zddE9l-5">
          <mxGeometry x="0.0928" relative="1" as="geometry">
            <mxPoint as="offset" />
          </mxGeometry>
        </mxCell>
        <mxCell id="z53Dpos0YwPdWJRnCJ37-25" value="qcbluettooth8930&lt;div&gt;QcBluetooth&lt;/div&gt;" style="rounded=1;whiteSpace=wrap;html=1;" parent="1" vertex="1">
          <mxGeometry x="190" y="690" width="120" height="60" as="geometry" />
        </mxCell>
        <mxCell id="z53Dpos0YwPdWJRnCJ37-35" style="rounded=0;orthogonalLoop=1;jettySize=auto;html=1;exitX=0.75;exitY=1;exitDx=0;exitDy=0;entryX=0.25;entryY=0;entryDx=0;entryDy=0;" parent="1" source="z53Dpos0YwPdWJRnCJ37-26" target="z53Dpos0YwPdWJRnCJ37-17" edge="1">
          <mxGeometry relative="1" as="geometry" />
        </mxCell>
        <mxCell id="z53Dpos0YwPdWJRnCJ37-26" value="BthEnum" style="rounded=1;whiteSpace=wrap;html=1;" parent="1" vertex="1">
          <mxGeometry x="40" y="380" width="120" height="60" as="geometry" />
        </mxCell>
        <mxCell id="z53Dpos0YwPdWJRnCJ37-33" style="rounded=0;orthogonalLoop=1;jettySize=auto;html=1;exitX=0.25;exitY=1;exitDx=0;exitDy=0;entryX=0.75;entryY=0;entryDx=0;entryDy=0;" parent="1" source="z53Dpos0YwPdWJRnCJ37-27" target="z53Dpos0YwPdWJRnCJ37-17" edge="1">
          <mxGeometry relative="1" as="geometry" />
        </mxCell>
        <mxCell id="z53Dpos0YwPdWJRnCJ37-27" value="BthLeEnum" style="rounded=1;whiteSpace=wrap;html=1;" parent="1" vertex="1">
          <mxGeometry x="354" y="380" width="120" height="60" as="geometry" />
        </mxCell>
        <mxCell id="z53Dpos0YwPdWJRnCJ37-28" value="" style="shape=flexArrow;endArrow=classic;html=1;rounded=0;entryX=0.5;entryY=0;entryDx=0;entryDy=0;fillColor=default;" parent="1" target="z53Dpos0YwPdWJRnCJ37-14" edge="1">
          <mxGeometry width="50" height="50" relative="1" as="geometry">
            <mxPoint x="250" y="290" as="sourcePoint" />
            <mxPoint x="440" y="360" as="targetPoint" />
          </mxGeometry>
        </mxCell>
        <mxCell id="z53Dpos0YwPdWJRnCJ37-29" value="Ioctl&lt;div&gt;Query&lt;span style=&quot;background-color: transparent; color: light-dark(rgb(0, 0, 0), rgb(255, 255, 255));&quot;&gt;&amp;nbsp;= 0x411180&lt;/span&gt;&lt;div&gt;Set = 0x411184&lt;/div&gt;&lt;/div&gt;" style="text;html=1;align=center;verticalAlign=middle;whiteSpace=wrap;rounded=0;fillColor=default;" parent="1" vertex="1">
          <mxGeometry x="270" y="300" width="130" height="40" as="geometry" />
        </mxCell>
        <mxCell id="z53Dpos0YwPdWJRnCJ37-40" value="Application&lt;div&gt;exe&lt;/div&gt;" style="rounded=0;whiteSpace=wrap;html=1;" parent="1" vertex="1">
          <mxGeometry x="50" y="20" width="100" height="30" as="geometry" />
        </mxCell>
        <mxCell id="z53Dpos0YwPdWJRnCJ37-41" style="edgeStyle=orthogonalEdgeStyle;rounded=0;orthogonalLoop=1;jettySize=auto;html=1;exitX=0.5;exitY=1;exitDx=0;exitDy=0;entryX=0.383;entryY=0.017;entryDx=0;entryDy=0;entryPerimeter=0;" parent="1" source="z53Dpos0YwPdWJRnCJ37-40" target="z53Dpos0YwPdWJRnCJ37-9" edge="1">
          <mxGeometry relative="1" as="geometry" />
        </mxCell>
        <mxCell id="z53Dpos0YwPdWJRnCJ37-44" value="COM interface" style="text;html=1;align=center;verticalAlign=middle;whiteSpace=wrap;rounded=0;" parent="1" vertex="1">
          <mxGeometry x="100" y="70" width="60" height="30" as="geometry" />
        </mxCell>
        <mxCell id="z53Dpos0YwPdWJRnCJ37-6" value="BthControlPanel&lt;div&gt;btuxcpl.exe&lt;/div&gt;" style="rounded=1;whiteSpace=wrap;html=1;" parent="1" vertex="1">
          <mxGeometry x="260" y="40" width="120" height="60" as="geometry" />
        </mxCell>
        <mxCell id="RMtyQ-C09SP7Z6zddE9l-1" value="&lt;span style=&quot;color: rgb(31, 35, 40); text-align: start; background-color: rgb(255, 255, 255);&quot;&gt;&lt;font face=&quot;Helvetica&quot;&gt;qcsmd8930&lt;/font&gt;&lt;/span&gt;" style="rounded=1;whiteSpace=wrap;html=1;" vertex="1" parent="1">
          <mxGeometry x="190" y="780" width="120" height="60" as="geometry" />
        </mxCell>
      </root>
    </mxGraphModel>
  </diagram>
</mxfile>
